<?xml version="1.0" standalone="no"?>
<!DOCTYPE svg PUBLIC "-//W3C//DTD SVG 1.1//EN" "http://www.w3.org/Graphics/SVG/1.1/DTD/svg11.dtd" >
<svg xmlns="http://www.w3.org/2000/svg">
<metadata></metadata>
<defs>
<font id="proxima_novamedium_it" horiz-adv-x="1183" >
<font-face units-per-em="2048" ascent="1618" descent="-430" />
<missing-glyph horiz-adv-x="528" />
<glyph unicode="&#xfb01;" horiz-adv-x="1083" d="M82 0l184 827h-164l35 162h164l14 66q74 331 338 331q116 0 191 -51l-70 -129q-39 29 -102 29q-69 0 -110 -44.5t-62 -135.5l-15 -66h201l-35 -162h-200l-185 -827h-184zM641 0l219 989h184l-219 -989h-184zM885 1223q0 59 42 96t91 37q46 0 77 -30.5t31 -72.5 q0 -59 -42 -96t-91 -37q-46 0 -77 30t-31 73z" />
<glyph unicode="&#xfb02;" horiz-adv-x="1083" d="M82 0l184 827h-164l35 162h164l14 66q74 331 338 331q116 0 191 -51l-70 -129q-39 29 -102 29q-69 0 -110 -44.5t-62 -135.5l-15 -66h201l-35 -162h-200l-185 -827h-184zM641 0l301 1366h184l-301 -1366h-184z" />
<glyph unicode="&#xfb03;" horiz-adv-x="1689" d="M82 0l184 827h-164l35 162h164l14 66q74 331 338 331q116 0 191 -51l-70 -129q-39 29 -102 29q-69 0 -110 -44.5t-62 -135.5l-15 -66h201l-35 -162h-200l-185 -827h-184zM688 0l184 827h-163l34 162h164l15 66q34 160 119.5 245.5t218.5 85.5q116 0 188 -51l-68 -129 q-42 29 -102 29q-69 0 -110 -44.5t-62 -135.5l-14 -66h200l-35 -162h-200l-185 -827h-184zM1249 0l219 989h185l-219 -989h-185zM1493 1223q0 59 41.5 96t91.5 37q45 0 76 -30.5t31 -72.5q0 -59 -42 -96t-92 -37q-45 0 -75.5 30t-30.5 73z" />
<glyph unicode="&#xfb04;" horiz-adv-x="1689" d="M82 0l184 827h-164l35 162h164l14 66q74 331 338 331q116 0 191 -51l-70 -129q-39 29 -102 29q-69 0 -110 -44.5t-62 -135.5l-15 -66h201l-35 -162h-200l-185 -827h-184zM688 0l184 827h-163l34 162h164l15 66q34 160 119.5 245.5t218.5 85.5q116 0 188 -51l-68 -129 q-42 29 -102 29q-69 0 -110 -44.5t-62 -135.5l-14 -66h200l-35 -162h-200l-185 -827h-184zM1249 0l301 1366h185l-301 -1366h-185z" />
<glyph horiz-adv-x="0" />
<glyph horiz-adv-x="682" />
<glyph horiz-adv-x="0" />
<glyph horiz-adv-x="0" />
<glyph unicode=" "  horiz-adv-x="528" />
<glyph unicode="&#x09;" horiz-adv-x="528" />
<glyph unicode="&#xa0;" horiz-adv-x="528" />
<glyph unicode="!" horiz-adv-x="487" d="M27 96q0 57 41 97t100 40q48 0 81.5 -34t33.5 -84q0 -56 -41.5 -97t-98.5 -41q-49 0 -82.5 34.5t-33.5 84.5zM141 399l178 967h228l-250 -967h-156z" />
<glyph unicode="&#x22;" horiz-adv-x="739" d="M236 821l34 436q3 56 38 92.5t87 36.5q39 0 66.5 -28t27.5 -70q0 -21 -12 -51l-153 -416h-88zM557 821l35 436q2 56 37.5 92.5t87.5 36.5q39 0 66.5 -28t27.5 -70q0 -21 -12 -51l-156 -416h-86z" />
<glyph unicode="#" horiz-adv-x="1224" d="M10 362l68 125h215l215 390h-215l65 122h220l200 367h146l-203 -367h217l201 367h145l-205 -367h215l-63 -122h-217l-219 -390h223l-66 -125h-225l-201 -362h-145l203 362h-217l-201 -362h-146l203 362h-213zM436 487h215l217 390h-215z" />
<glyph unicode="$" horiz-adv-x="1226" d="M35 223l133 150q111 -152 311 -199l96 444q-63 26 -104 45t-93 52t-82 67t-51.5 84t-21.5 109q0 125 76 223t195.5 146.5t253.5 41.5l40 187h146l-45 -205q220 -45 340 -199l-135 -145q-89 119 -248 160l-88 -402q62 -25 106 -45.5t95 -53.5t82.5 -68.5t53 -86.5 t21.5 -110q0 -198 -154.5 -325.5t-381.5 -117.5l-41 -180h-146l43 197q-132 25 -238 86t-163 145zM440 1008q0 -55 48 -95t137 -77l84 370q-105 5 -187 -53t-82 -145zM621 158q72 0 127.5 20.5t86.5 54.5t46.5 72t15.5 78q0 60 -48 101t-140 83z" />
<glyph unicode="%" horiz-adv-x="1513" d="M154 0l1173 1366h125l-1176 -1366h-122zM176 989q0 174 108.5 285.5t260.5 111.5q131 0 221 -77t90 -201q0 -174 -109 -285.5t-260 -111.5q-131 0 -221 77t-90 201zM315 1001q0 -74 50.5 -123t126.5 -49q91 0 157 76t66 191q0 72 -50 121t-126 49q-92 0 -158 -75.5 t-66 -189.5zM735 254q0 174 109 285.5t260 111.5q131 0 222 -77t91 -201q0 -87 -30.5 -162.5t-81 -126.5t-117.5 -80t-139 -29q-131 0 -222.5 77.5t-91.5 201.5zM877 266q0 -74 50 -123t126 -49q91 0 157 75.5t66 190.5q0 72 -50 121t-126 49q-92 0 -157.5 -75t-65.5 -189z " />
<glyph unicode="&#x26;" horiz-adv-x="1316" d="M27 322q0 77 22.5 142t57.5 111t89.5 86.5t106.5 66.5t121 54q-43 127 -43 230q0 156 115 265t274 109q137 0 227 -66.5t90 -186.5q0 -39 -8.5 -74.5t-20.5 -64t-35.5 -55.5t-44 -47t-55.5 -41.5t-60 -35t-68 -32t-69 -28.5t-73 -28q42 -85 97 -178q65 -114 118 -197 q130 138 209 285l137 -84q-144 -212 -262 -330q55 -78 166 -223h-227q-47 60 -78 104q-180 -129 -367 -129q-186 0 -302.5 89.5t-116.5 257.5zM229 346q0 -107 70 -164t174 -57q115 0 254 100q-87 126 -137 213q-76 135 -115 217q-118 -57 -182 -127.5t-64 -181.5zM571 1014 q0 -68 31 -166q75 27 123.5 48.5t96 53.5t70.5 72.5t23 91.5q0 63 -39.5 98t-99.5 35q-78 0 -141.5 -62.5t-63.5 -170.5z" />
<glyph unicode="'" horiz-adv-x="421" d="M236 821l34 436q3 56 38 92.5t87 36.5q39 0 66.5 -28t27.5 -70q0 -21 -12 -51l-153 -416h-88z" />
<glyph unicode="(" horiz-adv-x="536" d="M49 195q0 318 140.5 632.5t396.5 575.5l96 -96q-438 -560 -438 -1172q0 -207 75 -469l-131 -74q-139 250 -139 603z" />
<glyph unicode=")" horiz-adv-x="536" d="M-147 -311q438 557 438 1171q0 204 -76 469l129 74q141 -254 141 -602q0 -319 -141 -633.5t-397 -575.5z" />
<glyph unicode="*" horiz-adv-x="702" d="M170 1012l229 82l-182 125l72 81l166 -143l39 229h106l-65 -237l223 102l28 -94l-225 -82l180 -125l-71 -82l-166 144l-39 -228h-107l66 238l-223 -102z" />
<glyph unicode="+" horiz-adv-x="1024" d="M88 629l27 123h387l90 415h135l-92 -415h387l-29 -123h-385l-96 -430h-133l94 430h-385z" />
<glyph unicode="," horiz-adv-x="487" d="M-37 -178q58 27 109 75t71 97h-18q-40 0 -69 28t-29 74q0 56 42 96.5t97 40.5q54 0 88.5 -34.5t34.5 -98.5q0 -99 -73.5 -199.5t-180.5 -154.5z" />
<glyph unicode="-" horiz-adv-x="614" d="M41 416l37 159h491l-37 -159h-491z" />
<glyph unicode="." horiz-adv-x="487" d="M27 96q0 57 41 97t100 40q48 0 81.5 -34t33.5 -84q0 -56 -41.5 -97t-98.5 -41q-49 0 -82.5 34.5t-33.5 84.5z" />
<glyph unicode="/" horiz-adv-x="626" d="M-123 -41l805 1448h147l-806 -1448h-146z" />
<glyph unicode="0" horiz-adv-x="1257" d="M111 512q0 158 47 313.5t129.5 280.5t208 202.5t270.5 77.5q216 0 336.5 -142t120.5 -392q0 -127 -29 -253t-85.5 -238t-134 -198.5t-182 -137t-221.5 -50.5q-216 0 -338 143t-122 394zM319 502q0 -157 67 -250.5t206 -93.5q95 0 177.5 67t135 171.5t82 227t29.5 238.5 q0 157 -66 249.5t-205 92.5q-77 0 -146.5 -44t-119.5 -116t-87 -163.5t-55 -189t-18 -189.5z" />
<glyph unicode="1" horiz-adv-x="735" d="M145 991l449 375h180l-301 -1366h-205l242 1098l-272 -232z" />
<glyph unicode="2" horiz-adv-x="1210" d="M-4 0l43 197q136 82 228 138.5t197.5 125.5t173.5 120.5t135.5 110.5t105 108.5t61 102.5t23.5 103q0 92 -77 146t-202 54q-207 0 -348 -131l-92 146q83 76 203 120.5t249 44.5q130 0 237.5 -39.5t177 -125t69.5 -203.5q0 -87 -43 -177t-114 -170t-180 -167.5 t-222.5 -162.5t-260.5 -161h637l-39 -180h-962z" />
<glyph unicode="3" horiz-adv-x="1157" d="M-12 260l143 119q56 -103 166 -162t233 -59q141 0 221 72t80 186q0 86 -74 138t-212 52q-121 0 -144 -2l43 187q35 -3 187 -3q136 0 223.5 55.5t87.5 164.5q0 86 -81.5 141t-217.5 55q-195 0 -342 -127l-80 140q81 78 197.5 123.5t240.5 45.5q222 0 357 -92.5t135 -255.5 q0 -72 -32.5 -136t-86 -107t-118.5 -70t-132 -33q109 -27 179.5 -102t70.5 -193q0 -179 -143 -300.5t-359 -121.5q-180 0 -330.5 77.5t-211.5 207.5z" />
<glyph unicode="4" horiz-adv-x="1165" d="M23 328l40 182l750 856h293l-191 -858h189l-39 -180h-188l-72 -328h-205l72 328h-649zM264 508h447l149 672z" />
<glyph unicode="5" horiz-adv-x="1218" d="M61 244l152 127q109 -213 375 -213q136 0 226.5 86t90.5 211q0 113 -81 175t-214 62q-80 0 -144 -22.5t-130 -71.5l-133 61l155 707h865l-39 -180h-662l-90 -414q116 90 283 90q171 0 287 -102.5t116 -282.5q0 -101 -39.5 -193t-109 -160t-171 -108.5t-218.5 -40.5 q-367 0 -519 269z" />
<glyph unicode="6" horiz-adv-x="1220" d="M102 485q0 122 27 247t83.5 242.5t136.5 209t195 147t249 55.5q285 0 426 -200l-134 -139q-44 75 -124 116t-181 41q-88 0 -163.5 -40.5t-128.5 -109.5t-89 -146.5t-59 -166.5q-9 -20 -14 -45q63 66 167.5 116t215.5 50q184 0 300.5 -98.5t116.5 -265.5 q0 -140 -70.5 -260t-194.5 -191.5t-271 -71.5q-232 0 -360 133.5t-128 376.5zM301 455q0 -134 78 -215.5t213 -81.5q136 0 228.5 92.5t92.5 220.5q0 103 -80.5 163t-211.5 60q-174 0 -316 -149q-4 -32 -4 -90z" />
<glyph unicode="7" horiz-adv-x="1071" d="M131 0l791 1186h-713l41 180h958l-30 -141l-811 -1225h-236z" />
<glyph unicode="8" horiz-adv-x="1204" d="M53 330q0 145 108.5 250t293.5 147q-96 37 -162 111.5t-66 171.5q0 93 44.5 167.5t117.5 118.5t159.5 67t178.5 23q94 0 180 -22t155.5 -63.5t110.5 -107t41 -146.5q0 -141 -104 -237t-274 -126q105 -50 176 -130t71 -187q0 -115 -72.5 -206t-190.5 -138.5t-257 -47.5 q-142 0 -255 37.5t-184 119.5t-71 198zM268 365q0 -99 85.5 -153t217.5 -54q121 0 213.5 63t92.5 164q0 56 -41 105.5t-95 78.5t-114 45q-155 -9 -257 -77.5t-102 -171.5zM432 989q0 -70 74 -126.5t160 -76.5q148 11 237.5 69.5t89.5 156.5q0 81 -81 135.5t-197 54.5 t-199.5 -58t-83.5 -155z" />
<glyph unicode="9" horiz-adv-x="1220" d="M82 176l133 141q41 -76 120 -116.5t183 -40.5q71 0 134.5 27t111 71.5t87 106t65.5 124.5t45 132q2 10 6.5 25t5.5 20q-62 -66 -167.5 -116t-215.5 -50q-184 0 -302 99.5t-118 266.5q0 104 42.5 200t114 167t172 113.5t210.5 42.5q232 0 359.5 -133.5t127.5 -376.5 q0 -123 -26.5 -248t-83 -243t-136.5 -209t-195.5 -146.5t-250.5 -55.5q-142 0 -250 52.5t-172 146.5zM383 893q0 -103 82 -164t211 -61q175 0 317 149q4 36 4 90q0 135 -78 217t-212 82q-137 0 -230.5 -93t-93.5 -220z" />
<glyph unicode=":" horiz-adv-x="487" d="M27 96q0 57 41 97t100 40q48 0 81.5 -34t33.5 -84q0 -56 -41.5 -97t-98.5 -41q-49 0 -82.5 34.5t-33.5 84.5zM197 866q0 57 41.5 97.5t97.5 40.5q50 0 84.5 -34.5t34.5 -82.5q0 -58 -42 -98.5t-100 -40.5q-49 0 -82.5 34t-33.5 84z" />
<glyph unicode=";" horiz-adv-x="487" d="M-37 -178q58 27 109 75t71 97h-18q-40 0 -69 28t-29 74q0 56 42 96.5t97 40.5q54 0 88.5 -34.5t34.5 -98.5q0 -99 -73.5 -199.5t-180.5 -154.5zM197 866q0 57 41.5 97.5t97.5 40.5q50 0 84.5 -34.5t34.5 -82.5q0 -58 -42 -98.5t-100 -40.5q-49 0 -82.5 34t-33.5 84z" />
<glyph unicode="&#x3c;" horiz-adv-x="1024" d="M84 618l31 134l1001 436l-35 -154l-837 -358l680 -352l-31 -140z" />
<glyph unicode="=" horiz-adv-x="1024" d="M43 426l27 123h905l-27 -123h-905zM129 819l27 123h907l-29 -123h-905z" />
<glyph unicode="&#x3e;" horiz-adv-x="1024" d="M-12 184l35 154l837 352l-680 359l31 139l809 -436l-29 -134z" />
<glyph unicode="?" horiz-adv-x="942" d="M180 1223q180 163 414 163q182 0 300 -82.5t118 -218.5q0 -37 -6 -70.5t-21.5 -62.5t-29 -51t-40.5 -45.5t-44 -37.5t-52 -34.5t-50.5 -29.5t-53.5 -29q-51 -26 -80 -42.5t-62 -42.5t-48 -55.5t-15 -64.5q0 -41 33 -74l-166 -57q-45 67 -45 146q0 55 19.5 99.5t58 78.5 t74 56.5t88.5 51.5l12 6q53 27 81 44t62.5 45t50 60t15.5 71q0 73 -59.5 116t-166.5 43q-169 0 -295 -123zM244 96q0 57 41 97t98 40q50 0 83.5 -33.5t33.5 -84.5q0 -56 -41.5 -97t-98.5 -41q-49 0 -82.5 34.5t-33.5 84.5z" />
<glyph unicode="@" horiz-adv-x="1603" d="M113 500q0 215 114 402t301.5 296t397.5 109q189 0 337.5 -87.5t228 -233.5t79.5 -322q0 -118 -33 -214t-87 -154.5t-118.5 -90t-130.5 -31.5q-84 0 -134 47t-56 115l-2 12q-56 -78 -140.5 -126t-175.5 -48q-144 0 -229.5 93t-85.5 243q0 103 40.5 198.5t107 163t153 108 t176.5 40.5q92 0 159.5 -42.5t100.5 -109.5l25 121h168l-115 -538q-4 -24 -4 -45q0 -49 25.5 -76t64.5 -27q33 0 67.5 19.5t68.5 59.5t55.5 113.5t21.5 168.5q0 251 -158 410t-417 159q-144 0 -279.5 -60.5t-234.5 -160t-158.5 -233.5t-59.5 -275q0 -162 75 -294t209 -207 t300 -75q200 0 379 113l39 -55q-200 -129 -426 -129q-183 0 -332 85t-233 232t-84 326zM553 522q0 -96 52.5 -155.5t144.5 -59.5q162 0 282 170l58 273q-21 53 -72 95t-127 42q-141 0 -239.5 -111.5t-98.5 -253.5z" />
<glyph unicode="A" horiz-adv-x="1363" d="M-100 0l843 1366h256l242 -1366h-223l-49 283h-654l-172 -283h-243zM416 465h534l-114 692z" />
<glyph unicode="B" horiz-adv-x="1306" d="M41 0l301 1366h596q157 0 255.5 -90t98.5 -227q0 -141 -93 -246t-222 -117q89 -24 144 -104t55 -176q0 -77 -28 -147.5t-82.5 -129.5t-147.5 -94t-211 -35h-666zM285 180h413q126 0 198.5 71t72.5 171q0 81 -54 132.5t-147 51.5h-389zM420 786h407q65 0 114.5 20t77 54.5 t41 73.5t13.5 82q0 72 -55 121t-133 49h-377z" />
<glyph unicode="C" horiz-adv-x="1390" d="M115 578q0 178 64.5 332t171.5 257.5t247 162.5t291 59q208 0 354 -92.5t217 -247.5l-194 -74q-54 115 -156 173t-231 58q-107 0 -206.5 -45.5t-176 -124.5t-122.5 -195.5t-46 -250.5q0 -192 120 -312t320 -120q95 0 187 40.5t165 114.5l156 -110q-106 -117 -243 -172.5 t-277 -55.5q-183 0 -328.5 74t-229 212t-83.5 317z" />
<glyph unicode="D" horiz-adv-x="1443" d="M41 0l301 1366h477q114 0 218.5 -43.5t184 -119t126.5 -185.5t47 -236q0 -114 -31.5 -223.5t-100 -211t-168 -178.5t-246.5 -123t-323 -46h-485zM285 180h278q185 0 327.5 82t216 215t73.5 293q0 179 -113 297.5t-285 118.5h-274z" />
<glyph unicode="E" horiz-adv-x="1173" d="M41 0l301 1366h918l-41 -180h-711l-88 -400h696l-41 -180h-696l-94 -426h710l-37 -180h-917z" />
<glyph unicode="F" horiz-adv-x="1138" d="M41 0l301 1366h918l-41 -180h-711l-88 -400h696l-41 -180h-696l-133 -606h-205z" />
<glyph unicode="G" horiz-adv-x="1464" d="M115 578q0 173 61.5 324t167.5 257.5t251.5 168t309.5 61.5q191 0 332 -86t213 -224l-186 -84q-47 97 -151.5 154t-233.5 57q-107 0 -207.5 -47t-176.5 -127t-121.5 -196t-45.5 -246q0 -192 120 -312t320 -120q186 0 334 133l55 246h-438l39 180h643l-113 -508 q-105 -112 -240.5 -173t-291.5 -61q-281 0 -461 167.5t-180 435.5z" />
<glyph unicode="H" horiz-adv-x="1468" d="M41 0l301 1366h205l-125 -573h754l127 573h204l-301 -1366h-205l136 610h-756l-135 -610h-205z" />
<glyph unicode="I" horiz-adv-x="509" d="M41 0l301 1366h205l-301 -1366h-205z" />
<glyph unicode="J" horiz-adv-x="978" d="M-49 143l117 148q38 -63 101 -98t146 -35q116 0 189 70.5t100 195.5l207 942h205l-207 -944q-100 -447 -481 -447q-120 0 -220 43t-157 125z" />
<glyph unicode="K" horiz-adv-x="1251" d="M41 0l301 1366h205l-146 -659l703 659h268l-704 -647l448 -719h-239l-363 604l-168 -155l-100 -449h-205z" />
<glyph unicode="L" horiz-adv-x="1058" d="M41 0l301 1366h205l-262 -1186h618l-37 -180h-825z" />
<glyph unicode="M" horiz-adv-x="1683" d="M41 0l301 1366h283l178 -997l618 997h301l-301 -1366h-204l241 1102l-684 -1102h-86l-199 1102l-243 -1102h-205z" />
<glyph unicode="N" horiz-adv-x="1462" d="M41 0l301 1366h211l512 -1038l231 1038h205l-301 -1366h-199l-520 1063l-235 -1063h-205z" />
<glyph unicode="O" horiz-adv-x="1566" d="M115 578q0 168 60.5 318.5t163.5 258.5t246.5 171t303.5 63q180 0 324.5 -70.5t230.5 -208.5t86 -322q0 -169 -60.5 -319.5t-163.5 -259t-246.5 -171.5t-303.5 -63q-180 0 -324.5 70.5t-230.5 209t-86 323.5zM328 590q0 -201 124.5 -316.5t315.5 -115.5q110 0 211 47 t175.5 128.5t118.5 196.5t44 244q0 133 -59.5 232.5t-158.5 149.5t-222 50q-111 0 -212 -47t-175 -128.5t-118 -196.5t-44 -244z" />
<glyph unicode="P" horiz-adv-x="1222" d="M41 0l301 1366h530q180 0 286 -104t106 -256q0 -65 -17 -129.5t-58 -128.5t-100.5 -112.5t-152.5 -79t-207 -30.5h-367l-116 -526h-205zM401 707h344q141 0 223.5 80.5t82.5 199.5q0 83 -60 141t-151 58h-332z" />
<glyph unicode="Q" horiz-adv-x="1566" d="M115 578q0 168 60.5 318.5t163.5 258.5t246.5 171t303.5 63q180 0 324.5 -70.5t230.5 -208.5t86 -322q0 -199 -83 -370.5t-226 -282.5l82 -119l-166 -86l-74 109q-147 -64 -307 -64q-180 0 -324.5 70.5t-230.5 209t-86 323.5zM328 590q0 -201 124.5 -316.5t315.5 -115.5 q93 0 188 37l-149 219l164 86l141 -207q95 86 150 211t55 270q0 133 -59.5 232.5t-158.5 149.5t-222 50q-111 0 -212 -47t-175 -128.5t-118 -196.5t-44 -244z" />
<glyph unicode="R" horiz-adv-x="1265" d="M41 0l301 1366h526q104 0 194 -43t147 -128t57 -194q0 -188 -119 -316t-309 -148l227 -537h-225l-211 526h-269l-114 -526h-205zM401 707h344q142 0 224 78t82 198q0 87 -65.5 145t-151.5 58h-326z" />
<glyph unicode="S" horiz-adv-x="1208" d="M23 223l135 150q71 -99 191 -157t261 -58q70 0 125 20.5t86.5 54t47.5 72t16 78.5q0 20 -5 38.5t-18.5 35t-25 29t-36 27.5t-39.5 23.5t-48.5 23t-49 21t-53.5 21.5q-42 16 -63.5 24.5t-61.5 26t-62 29.5t-55.5 32.5t-52 38.5t-41.5 43.5t-35 51.5t-20 58.5t-8 68.5 q0 81 36.5 155.5t100.5 131t158.5 90.5t202.5 34q160 0 296 -58t212 -159l-136 -145q-66 89 -174.5 135.5t-224.5 46.5q-105 0 -178.5 -59.5t-73.5 -138.5q0 -24 9 -45.5t30 -40.5t40 -33t57 -31.5t61.5 -27.5t70.5 -29q51 -20 82.5 -32.5t79.5 -35.5t77.5 -43t65 -50 t55 -61.5t33 -73t13.5 -87.5q0 -86 -34 -165t-97 -141.5t-161.5 -99.5t-217.5 -37q-185 0 -339.5 69t-231.5 179z" />
<glyph unicode="T" horiz-adv-x="1173" d="M211 1186l41 180h1051l-39 -180h-424l-260 -1186h-205l260 1186h-424z" />
<glyph unicode="U" horiz-adv-x="1454" d="M150 436q0 42 10 99l182 831h207l-180 -827q-11 -39 -11 -80q0 -133 90 -218t250 -85q172 0 267.5 98.5t136.5 284.5l182 827h207l-182 -829q-29 -132 -74.5 -230.5t-116.5 -175.5t-176.5 -116.5t-243.5 -39.5q-260 0 -404 124.5t-144 336.5z" />
<glyph unicode="V" horiz-adv-x="1363" d="M201 1366h223l184 -1143l690 1143h244l-844 -1366h-256z" />
<glyph unicode="W" horiz-adv-x="1828" d="M211 1366h223l41 -1096l541 1096h166l55 -1096l526 1096h234l-690 -1366h-220l-51 1055l-516 -1055h-219z" />
<glyph unicode="X" horiz-adv-x="1343" d="M-96 0l682 713l-350 653h233l272 -516l484 516h262l-641 -678l371 -688h-232l-297 551l-522 -551h-262z" />
<glyph unicode="Y" horiz-adv-x="1294" d="M201 1366h223l266 -610l533 610h250l-709 -795l-125 -571h-205l125 571z" />
<glyph unicode="Z" horiz-adv-x="1202" d="M-16 0l36 168l945 1018h-719l39 180h997l-35 -168l-948 -1018h737l-41 -180h-1011z" />
<glyph unicode="[" horiz-adv-x="520" d="M-113 -389l396 1778h399l-31 -132h-260l-334 -1515h258l-28 -131h-400z" />
<glyph unicode="\" horiz-adv-x="626" d="M201 1407h141l164 -1448h-141z" />
<glyph unicode="]" horiz-adv-x="520" d="M-162 -389l29 131h258l338 1515h-260l28 132h400l-395 -1778h-398z" />
<glyph unicode="^" horiz-adv-x="888" d="M78 682l489 684h138l184 -684h-137l-140 553l-383 -553h-151z" />
<glyph unicode="_" horiz-adv-x="1155" d="M-164 -213l31 131h1165l-31 -131h-1165z" />
<glyph unicode="`" horiz-adv-x="477" d="M207 1434h182l229 -295h-135z" />
<glyph unicode="a" d="M74 383q0 119 36 231.5t101 202t165 143.5t218 54q108 0 196 -46.5t140 -127.5l31 149h184l-219 -989h-185l31 137q-130 -162 -317 -162q-172 0 -276.5 108t-104.5 300zM268 418q0 -128 71 -203.5t187 -75.5q83 0 158.5 44t122.5 110l92 409q-37 65 -111 106.5t-170 41.5 q-101 0 -182.5 -61.5t-124.5 -160t-43 -210.5z" />
<glyph unicode="b" d="M37 0l301 1366h184l-114 -514q133 162 319 162q172 0 276.5 -109t104.5 -301q0 -118 -36.5 -230.5t-101.5 -201.5t-165 -143t-217 -54q-108 0 -196 47t-140 128l-31 -150h-184zM283 285q37 -65 110.5 -105.5t169.5 -40.5q101 0 182.5 61.5t124.5 159.5t43 209 q0 128 -71.5 204.5t-186.5 76.5q-84 0 -158.5 -44t-123.5 -112z" />
<glyph unicode="c" horiz-adv-x="1015" d="M76 420q0 161 74 297.5t203 216.5t284 80q267 0 379 -189l-139 -104q-35 62 -98.5 95.5t-139.5 33.5q-166 0 -270.5 -125.5t-104.5 -300.5q0 -135 82 -210t211 -75q70 0 131.5 30.5t106.5 82.5l102 -125q-145 -152 -358 -152q-208 0 -335.5 120.5t-127.5 324.5z" />
<glyph unicode="d" d="M74 383q0 119 36 231.5t101 202t165 143.5t218 54q108 0 196 -46.5t140 -127.5l114 526h185l-303 -1366h-185l31 137q-130 -162 -317 -162q-172 0 -276.5 108t-104.5 300zM268 418q0 -128 71 -203.5t187 -75.5q83 0 158.5 44t122.5 110l92 409q-37 65 -111 106.5 t-170 41.5q-101 0 -182.5 -61.5t-124.5 -160t-43 -210.5z" />
<glyph unicode="e" horiz-adv-x="1146" d="M76 416q0 161 73 298.5t202 218.5t284 81q195 0 313.5 -120.5t118.5 -315.5q0 -79 -18 -144h-785q-4 -16 -4 -41q0 -108 84.5 -187t235.5 -79q72 0 146 23.5t128 66.5l59 -129q-68 -52 -160.5 -82.5t-185.5 -30.5q-228 0 -359.5 119.5t-131.5 321.5zM283 567h616 q2 6 2 33q0 114 -73.5 188t-206.5 74q-124 0 -220 -87t-118 -208z" />
<glyph unicode="f" horiz-adv-x="606" d="M82 0l184 827h-164l35 162h164l14 66q74 331 338 331q116 0 191 -51l-70 -129q-39 29 -102 29q-69 0 -110 -44.5t-62 -135.5l-15 -66h201l-35 -162h-200l-185 -827h-184z" />
<glyph unicode="g" horiz-adv-x="1181" d="M-18 -231l114 122q48 -70 135.5 -105.5t198.5 -35.5q256 0 318 289l26 119q-60 -76 -144 -119t-181 -43q-79 0 -145.5 24t-118.5 72t-81.5 127.5t-29.5 183.5q0 116 35.5 225t100 195.5t163 138.5t215.5 52q96 0 190 -48.5t148 -125.5l35 149h184l-213 -950 q-21 -99 -59 -176t-85.5 -126t-107 -80.5t-119.5 -44.5t-127 -13q-151 0 -262.5 39t-189.5 131zM264 434q0 -127 72 -201.5t192 -74.5q76 0 151.5 41.5t127.5 105.5l88 391q-39 71 -117.5 112.5t-171.5 41.5q-100 0 -179.5 -60t-121 -154.5t-41.5 -201.5z" />
<glyph unicode="h" horiz-adv-x="1146" d="M37 0l301 1366h184l-114 -516q172 164 344 164q137 0 218 -65.5t81 -182.5q0 -27 -11 -82l-151 -684h-184l139 635q10 40 10 65q0 76 -53.5 113t-141.5 37q-74 0 -149 -41.5t-135 -103.5l-154 -705h-184z" />
<glyph unicode="i" horiz-adv-x="477" d="M37 0l219 989h184l-219 -989h-184zM281 1223q0 59 41.5 96t91.5 37q45 0 75.5 -30.5t30.5 -72.5q0 -59 -41.5 -96t-91.5 -37q-45 0 -75.5 30t-30.5 73z" />
<glyph unicode="j" horiz-adv-x="477" d="M-270 -377l45 148q35 -15 75 -15q128 0 168 166l238 1067h184l-237 -1067q-37 -159 -116.5 -241t-217.5 -82q-77 0 -139 24zM281 1223q0 59 41.5 96t91.5 37q45 0 75.5 -30.5t30.5 -72.5q0 -59 -41.5 -96t-91.5 -37q-45 0 -75.5 30t-30.5 73z" />
<glyph unicode="k" horiz-adv-x="1064" d="M37 0l301 1366h184l-192 -868l577 491h242l-526 -448l311 -541h-223l-240 432l-190 -158l-60 -274h-184z" />
<glyph unicode="l" horiz-adv-x="477" d="M37 0l301 1366h184l-301 -1366h-184z" />
<glyph unicode="m" horiz-adv-x="1679" d="M37 0l219 989h184l-32 -139q148 164 309 164q63 0 115.5 -20.5t82 -50.5t45 -58.5t15.5 -48.5v-5q65 80 153 131.5t191 51.5q112 0 189 -66t77 -182q0 -24 -10 -82l-152 -684h-184l143 647q9 45 9 62q0 64 -47.5 102.5t-114.5 38.5q-65 0 -132.5 -41t-119.5 -102 l-156 -707h-184l143 647q8 50 8 72q-2 57 -44.5 94t-118.5 37q-62 0 -128 -41t-122 -102l-154 -707h-184z" />
<glyph unicode="n" horiz-adv-x="1144" d="M37 0l219 989h184l-32 -139q172 164 344 164q137 0 218 -65.5t81 -182.5q0 -27 -11 -82l-151 -684h-184l139 635q10 45 10 65q0 75 -50.5 112.5t-127.5 37.5q-158 0 -301 -143l-154 -707h-184z" />
<glyph unicode="o" horiz-adv-x="1171" d="M74 418q0 115 42 223.5t114.5 190.5t177.5 132t223 50q215 0 340 -122.5t125 -320.5q0 -116 -42.5 -224.5t-115 -190.5t-178 -131.5t-223.5 -49.5q-215 0 -339 122t-124 321zM266 426q0 -133 73.5 -210t203.5 -77q102 0 186 61t129 157.5t45 205.5q0 133 -73.5 210 t-202.5 77q-102 0 -186 -61.5t-129.5 -158t-45.5 -204.5z" />
<glyph unicode="p" horiz-adv-x="1177" d="M-47 -377l303 1366h184l-32 -137q133 162 319 162q172 0 276.5 -109t104.5 -301q0 -118 -36.5 -230.5t-101.5 -201.5t-165 -143t-217 -54q-108 0 -196 47t-140 128l-115 -527h-184zM283 285q37 -65 110.5 -105.5t169.5 -40.5q101 0 182.5 61.5t124.5 159.5t43 209 q0 128 -71.5 204.5t-186.5 76.5q-84 0 -158.5 -44t-123.5 -112z" />
<glyph unicode="q" horiz-adv-x="1177" d="M74 383q0 119 36 231.5t101 202t165 143.5t218 54q108 0 196 -46.5t140 -127.5l31 149h184l-303 -1366h-185l115 514q-130 -162 -317 -162q-172 0 -276.5 108t-104.5 300zM268 418q0 -128 71 -203.5t187 -75.5q83 0 158.5 44t122.5 110l92 409q-37 65 -111 106.5 t-170 41.5q-101 0 -182.5 -61.5t-124.5 -160t-43 -210.5z" />
<glyph unicode="r" horiz-adv-x="692" d="M37 0l219 989h184l-34 -145q75 85 159 126.5t203 41.5l-41 -187q-54 9 -82 9q-77 0 -150.5 -43t-123.5 -107l-150 -684h-184z" />
<glyph unicode="s" horiz-adv-x="958" d="M-2 152l113 127q43 -62 136 -109t197 -47q92 0 147.5 45t55.5 108q0 22 -12 41.5t-28 33t-48.5 29.5t-55 25t-65.5 25q-40 15 -54.5 20.5t-52 21t-53.5 26t-45 28t-43 34.5t-30 39t-22.5 48t-6.5 55q0 130 103.5 221t281.5 91q122 0 227 -45.5t162 -116.5l-100 -121 q-37 54 -120.5 93.5t-174.5 39.5q-90 0 -142.5 -37.5t-52.5 -95.5q0 -24 14 -43.5t41 -35.5t56 -28.5t71 -28.5q13 -5 19 -7q42 -15 64 -23.5t61 -26t60.5 -31.5t50 -36.5t43.5 -45.5t25.5 -54t10.5 -66q0 -137 -108 -233.5t-291 -96.5q-136 0 -248.5 45.5t-185.5 131.5z " />
<glyph unicode="t" horiz-adv-x="626" d="M92 829l37 160h164l59 271h185l-60 -271h201l-37 -160h-201l-123 -561q-4 -20 -4 -39q0 -90 99 -90q51 0 88 29l14 -148q-57 -45 -152 -45q-116 0 -180.5 47.5t-64.5 143.5q0 26 6 61l133 602h-164z" />
<glyph unicode="u" horiz-adv-x="1144" d="M92 223q0 42 12 82l152 684h184l-141 -633q-10 -45 -10 -67q0 -76 53 -113t141 -37q73 0 148 42t137 104l156 704h184l-219 -989h-184l30 139q-172 -164 -344 -164q-136 0 -217.5 65.5t-81.5 182.5z" />
<glyph unicode="v" horiz-adv-x="1017" d="M111 989h190l135 -776l484 776h204l-626 -989h-199z" />
<glyph unicode="w" horiz-adv-x="1523" d="M125 989h186l56 -753l415 753h162l80 -753l391 753h201l-531 -989h-190l-76 760l-411 -760h-191z" />
<glyph unicode="x" horiz-adv-x="1005" d="M-94 0l481 508l-240 481h201l176 -356l334 356h217l-459 -481l263 -508h-203l-191 385l-362 -385h-217z" />
<glyph unicode="y" horiz-adv-x="1017" d="M-96 -379l63 164q41 -18 99 -18q41 0 73 20.5t66 71.5l88 135l-182 995h190l135 -776l484 776h204l-749 -1177q-71 -113 -148.5 -163t-181.5 -50q-80 0 -141 22z" />
<glyph unicode="z" horiz-adv-x="970" d="M-10 0l28 141l662 686h-506l35 162h760l-29 -137l-668 -692h521l-35 -160h-768z" />
<glyph unicode="{" horiz-adv-x="548" d="M-25 -158q0 26 7 58l90 401q4 24 4 35q0 46 -22 76t-58 30l27 115q56 0 90 39t47 102l88 400q33 145 121 218t217 73h125l-29 -132h-125q-132 0 -168 -159l-98 -430q-31 -149 -133 -183q59 -32 59 -112q0 -37 -8 -70l-88 -401q-4 -24 -4 -43q0 -52 33 -84.5t83 -32.5h113 l-31 -131h-96q-99 0 -171.5 65t-72.5 166z" />
<glyph unicode="|" horiz-adv-x="434" d="M193 -41v1448h131v-1448h-131z" />
<glyph unicode="}" horiz-adv-x="548" d="M-164 -389l29 131h125q65 0 109 41t61 117l96 432q31 147 133 182q-59 32 -59 113q0 36 8 69l88 402q4 24 4 41q0 52 -33 85t-84 33h-112l30 132h97q99 0 171 -65.5t72 -166.5q0 -35 -6 -59l-90 -400q-4 -24 -4 -36q0 -45 22 -75t58 -30l-27 -115q-56 0 -90 -39t-47 -102 l-88 -399q-33 -146 -121 -218.5t-217 -72.5h-125z" />
<glyph unicode="~" horiz-adv-x="1034" d="M137 874q21 100 51.5 183t74.5 154.5t107 112t138 40.5q46 0 80.5 -14t54 -34t33.5 -53t20.5 -60t13.5 -66q1 -5 1 -7q5 -37 9.5 -58.5t14 -45t26.5 -34.5t42 -11q70 0 133.5 108t99.5 277l131 -16q-114 -490 -372 -490q-47 0 -82 15t-54.5 35t-34 56t-19.5 60.5 t-11 67.5q-6 34 -8.5 47.5t-10 38t-16 34t-24 18.5t-35.5 9q-69 0 -132.5 -107t-101.5 -276z" />
<glyph unicode="&#xa1;" horiz-adv-x="487" d="M-66 -377l248 965h158l-178 -965h-228zM197 872q0 57 41.5 98.5t97.5 41.5q51 0 85 -34.5t34 -84.5q0 -57 -42.5 -97t-99.5 -40q-49 0 -82.5 33t-33.5 83z" />
<glyph unicode="&#xa2;" horiz-adv-x="1015" d="M76 420q0 119 42.5 227.5t115 188t174 127.5t215.5 51l30 143h142l-37 -156q179 -39 258 -176l-139 -104q-52 88 -154 117l-156 -697q135 3 228 111l102 -125q-145 -152 -365 -152l-40 -180h-142l45 197q-148 37 -233.5 150t-85.5 278zM264 424q0 -98 45 -165.5 t123 -96.5l152 684q-145 -21 -232.5 -142t-87.5 -280z" />
<glyph unicode="&#xa3;" horiz-adv-x="1079" d="M12 133q141 59 235.5 163.5t94.5 213.5q0 27 -2 39h-289l29 127h213l-23 41q-26 46 -38 70t-25.5 69t-13.5 88q0 118 67.5 220t185 162t256.5 60q103 0 194 -30t156.5 -88t88.5 -135l-185 -78q-17 72 -85 117t-160 45q-123 0 -209 -81t-86 -210q0 -35 10 -71.5t19 -55.5 t30 -58q24 -41 35 -65h297l-29 -127h-241q0 -97 -67 -190t-148 -140q49 14 94 14q77 0 166 -40q101 -37 151 -37q100 0 180 80l50 -164q-106 -99 -244 -99q-45 0 -92 9t-71.5 17t-74.5 26q-3 1 -20.5 6.5t-21.5 7t-19.5 6t-22 6t-20.5 5t-23 4.5t-21.5 3t-24 2.5t-23.5 0.5 q-99 0 -234 -80z" />
<glyph unicode="&#xa4;" horiz-adv-x="1239" d="M8 248l199 160q-51 89 -51 208q0 113 40 213.5t113 176.5l-116 149l126 100l119 -151q122 67 267 67q185 0 315 -100l201 164l98 -121l-199 -162q54 -91 54 -211q0 -110 -41.5 -209t-116.5 -176l114 -143l-126 -100l-115 147q-121 -70 -264 -70q-187 0 -314 97l-202 -164 zM344 631q0 -118 75 -196.5t214 -78.5q99 0 180 52.5t125.5 137.5t44.5 181q0 118 -75 197.5t-216 79.5q-100 0 -181 -53t-124 -138t-43 -182z" />
<glyph unicode="&#xa5;" horiz-adv-x="1294" d="M-12 246l28 123h504l45 202h-504l27 123h422l-305 672h223l268 -610l531 610h250l-598 -672h413l-28 -123h-494l-45 -202h494l-29 -123h-492l-55 -246h-205l56 246h-506z" />
<glyph unicode="&#xa6;" horiz-adv-x="434" d="M193 -41v647h131v-647h-131zM193 760v647h131v-647h-131z" />
<glyph unicode="&#xa7;" horiz-adv-x="966" d="M-49 0l112 113q51 -67 143 -106.5t195 -39.5q94 0 152.5 48t58.5 120q0 25 -12.5 46.5t-28.5 36t-49 31t-55 25.5t-66 25q-34 13 -47.5 18.5t-45 18.5t-46.5 21.5t-41 24t-39.5 28.5t-31 32.5t-26 39t-14.5 44.5t-6 52q0 102 74.5 178.5t212.5 103.5q-176 73 -176 221 q0 126 105 215.5t276 89.5q272 0 410 -151l-105 -102q-47 59 -129 89.5t-170 30.5q-92 0 -148.5 -43t-56.5 -106q0 -25 12.5 -46.5t28.5 -35.5t49.5 -30t56 -24.5t66.5 -23.5q41 -15 62 -23t58 -24.5t57.5 -30t47.5 -35.5t40.5 -45t23.5 -54t10 -66q0 -100 -64 -180.5 t-183 -116.5q73 -41 104 -92t31 -117q0 -134 -108.5 -230t-285.5 -96q-146 0 -261.5 43.5t-190.5 122.5zM289 610q0 -34 15.5 -61t49.5 -48.5t69.5 -37t94.5 -35.5q103 29 153 83.5t50 115.5q0 62 -47.5 100.5t-130.5 67.5q-126 -16 -190 -67t-64 -118z" />
<glyph unicode="&#xa8;" horiz-adv-x="569" d="M127 1229q0 47 37.5 83t83.5 36q41 0 68.5 -28t27.5 -69q0 -46 -37 -82t-84 -36q-40 0 -68 28t-28 68zM553 1229q0 47 37 83t84 36q41 0 67.5 -27.5t26.5 -69.5q0 -46 -36 -82t-85 -36q-40 0 -67 28t-27 68z" />
<glyph unicode="&#xa9;" horiz-adv-x="1593" d="M131 684q0 192 94.5 355t257 257.5t353.5 94.5q192 0 355 -94.5t258 -257.5t95 -355q0 -143 -56 -274t-151 -226t-226 -151t-275 -56q-191 0 -353.5 95t-257 258t-94.5 354zM197 684q0 -130 50.5 -248.5t136.5 -204.5t204 -137t248 -51t249 51t205 137t137.5 204.5 t51.5 248.5t-51.5 248.5t-137.5 204.5t-205 137t-249 51t-248 -51t-204 -137t-136.5 -204.5t-50.5 -248.5zM408 629q0 102 40.5 194.5t107.5 157t154.5 102t178.5 37.5q221 0 321 -164l-67 -49q-74 142 -258 142q-96 0 -186.5 -53t-150 -151t-59.5 -214q0 -131 86 -221.5 t226 -90.5q63 0 126.5 28t108.5 71l41 -62q-131 -108 -278 -108q-177 0 -284 108.5t-107 272.5z" />
<glyph unicode="&#xaa;" horiz-adv-x="841" d="M172 926q0 165 100 283t246 118q156 0 227 -106l19 90h139l-143 -643h-139l20 90q-91 -107 -213 -107q-108 0 -182 72t-74 203zM317 940q0 -86 45.5 -132t120.5 -46q100 0 181 92l63 281q-24 38 -73 60t-105 22q-97 0 -164.5 -82.5t-67.5 -194.5z" />
<glyph unicode="&#xab;" horiz-adv-x="950" d="M59 498l410 362h186l-417 -373l237 -358h-170zM381 498l410 362h186l-418 -373l238 -358h-170z" />
<glyph unicode="&#xac;" horiz-adv-x="1038" d="M129 819l27 123h907l-115 -516h-127l86 393h-778z" />
<glyph unicode="&#xad;" horiz-adv-x="614" d="M41 416l37 159h491l-37 -159h-491z" />
<glyph unicode="&#xae;" horiz-adv-x="1011" d="M172 952q0 181 127 307.5t307 126.5q119 0 219 -57.5t157.5 -157.5t57.5 -219q0 -180 -127.5 -307t-308.5 -127q-180 0 -306 127t-126 307zM231 952q0 -154 109 -264t264 -110t265 110t110 264q0 156 -109.5 264.5t-265.5 108.5t-264.5 -108.5t-108.5 -264.5zM385 702 l109 498h188q61 0 102 -36t41 -95q0 -71 -50.5 -119.5t-112.5 -48.5l90 -199h-78l-86 197h-94l-43 -197h-66zM506 961h137q49 0 81 29.5t32 72.5q0 36 -23.5 57t-62.5 21h-123z" />
<glyph unicode="&#xaf;" horiz-adv-x="743" d="M147 1165l25 113h741l-24 -113h-742z" />
<glyph unicode="&#xb0;" horiz-adv-x="606" d="M184 1128q0 106 75 182t181 76q107 0 182.5 -76t75.5 -182q0 -107 -75.5 -181.5t-182.5 -74.5q-106 0 -181 74.5t-75 181.5zM297 1128q0 -60 40.5 -102.5t100.5 -42.5t105 42.5t45 102.5t-44 104t-104 44t-101.5 -44t-41.5 -104z" />
<glyph unicode="&#xb1;" horiz-adv-x="1024" d="M-51 0l24 123h908l-27 -123h-905zM94 664l27 122h387l92 418h135l-94 -418h387l-29 -122h-385l-96 -431h-133l94 431h-385z" />
<glyph unicode="&#xb2;" horiz-adv-x="798" d="M180 862l27 115q129 76 205 123t153.5 100.5t116.5 92.5t63.5 80.5t24.5 82.5q0 58 -47.5 89.5t-116.5 31.5q-67 0 -128.5 -26t-100.5 -68l-66 96q57 55 135.5 85t163.5 30q129 0 218.5 -59t89.5 -169q0 -51 -26 -102.5t-67 -96t-109.5 -96.5t-134.5 -94t-161 -98h395 l-24 -117h-611z" />
<glyph unicode="&#xb3;" horiz-adv-x="798" d="M201 997l92 84q82 -116 239 -116q79 0 123.5 41.5t44.5 105.5q0 51 -53.5 81t-142.5 30q-52 0 -64 -2l27 118q50 -4 125 -4q83 0 129.5 33.5t46.5 93.5q0 53 -53 84t-129 31q-117 0 -217 -84l-54 92q56 47 131.5 78t151.5 31q139 0 228 -56t89 -157q0 -87 -62.5 -144.5 t-166.5 -64.5q68 -14 114 -61t46 -115q0 -99 -84 -173.5t-223 -74.5q-117 0 -206 39.5t-132 109.5z" />
<glyph unicode="&#xb4;" horiz-adv-x="477" d="M137 1139l361 295h186l-408 -295h-139z" />
<glyph unicode="&#xb5;" horiz-adv-x="1171" d="M-53 -377l309 1366h184l-143 -635q-25 -108 22.5 -162.5t141.5 -54.5q79 0 162 41.5t139 100.5l158 710h184l-164 -739q-11 -52 6.5 -81.5t61.5 -29.5q21 0 41 4l-23 -157q-46 -11 -94 -11q-99 0 -145 45.5t-44 131.5q-72 -78 -163 -127.5t-181 -49.5q-126 0 -170 86 l-98 -438h-184z" />
<glyph unicode="&#xb6;" horiz-adv-x="919" d="M162 981q0 97 50.5 185t143 144t203.5 56h420l-348 -1571h-103l326 1469h-176l-326 -1469h-102l192 867q-116 0 -198 91t-82 228z" />
<glyph unicode="&#xb7;" horiz-adv-x="487" d="M115 492q0 57 41 97t100 40q48 0 81.5 -34t33.5 -85q0 -56 -41.5 -96.5t-98.5 -40.5q-49 0 -82.5 34.5t-33.5 84.5z" />
<glyph unicode="&#xb8;" horiz-adv-x="428" d="M-182 -313l59 80q33 -34 78.5 -53t91.5 -19q57 0 89 24.5t32 63.5q0 26 -19 41.5t-53 15.5q-42 0 -69 -30l-66 43l100 170h103l-82 -134q33 23 68 23q53 0 85.5 -32.5t32.5 -90.5q0 -83 -62 -133.5t-161 -50.5q-71 0 -131 23t-96 59z" />
<glyph unicode="&#xb9;" horiz-adv-x="512" d="M231 1442l291 239h127l-180 -819h-145l137 625l-164 -135z" />
<glyph unicode="&#xba;" horiz-adv-x="829" d="M170 944q0 159 110.5 271t266.5 112q143 0 229 -81.5t86 -213.5q0 -158 -111.5 -269.5t-267.5 -111.5q-141 0 -227 81.5t-86 211.5zM313 942q0 -80 47.5 -128t126.5 -48q104 0 168 80.5t64 187.5q0 78 -48 127t-126 49q-104 0 -168 -80.5t-64 -187.5z" />
<glyph unicode="&#xbb;" horiz-adv-x="950" d="M-23 129l418 373l-237 358h170l245 -368l-409 -363h-187zM299 129l418 373l-238 358h170l246 -368l-410 -363h-186z" />
<glyph unicode="&#xbc;" horiz-adv-x="1613" d="M129 0l1174 1366h124l-1175 -1366h-123zM162 1126l291 240h127l-181 -819h-145l137 624l-164 -135zM817 197l23 102l460 520h199l-113 -506h117l-24 -116h-117l-43 -197h-143l43 197h-402zM989 313h256l82 373z" />
<glyph unicode="&#xbd;" horiz-adv-x="1687" d="M129 0l1174 1366h124l-1175 -1366h-123zM162 1126l291 240h127l-181 -819h-145l137 624l-164 -135zM877 0l24 115q128 75 205.5 122.5t154 101t116 92.5t63.5 80.5t24 82.5q0 58 -46.5 89.5t-114.5 31.5q-69 0 -130 -25.5t-102 -68.5l-63 96q56 55 134.5 84.5t164.5 29.5 q127 0 217 -58.5t90 -168.5q0 -51 -26 -102.5t-67 -96t-110 -96t-135 -94t-162 -98.5h395l-24 -117h-608z" />
<glyph unicode="&#xbe;" horiz-adv-x="1822" d="M131 682l92 84q40 -57 103 -87t137 -30q79 0 123.5 42t44.5 106q0 51 -53.5 80.5t-143.5 29.5q-51 0 -63 -2l26 119q50 -4 125 -4q83 0 129.5 33.5t46.5 93.5q0 53 -53 84t-129 31q-117 0 -217 -84l-53 92q56 47 131 77.5t151 30.5q139 0 228.5 -56t89.5 -157 q0 -86 -63 -144t-167 -65q68 -14 114 -61t46 -115q0 -99 -84 -173.5t-223 -74.5q-117 0 -206 39.5t-132 110.5zM338 0l1173 1366h125l-1175 -1366h-123zM1028 197l23 102l460 520h199l-113 -506h117l-26 -116h-115l-43 -197h-144l44 197h-402zM1200 313h254l84 373z" />
<glyph unicode="&#xbf;" horiz-adv-x="808" d="M-74 -98q0 43 10.5 81.5t23 66t40.5 57.5t46 46.5t57.5 41t56.5 34t61 33.5q45 23 65 34.5t53.5 33.5t48.5 39.5t27.5 43.5t12.5 54q0 40 -31 74l166 57q43 -64 43 -145q0 -33 -8.5 -63t-19.5 -52t-34 -46t-39 -38t-49 -35t-49 -30t-53 -29q-52 -27 -79.5 -43.5 t-62.5 -44.5t-51 -60t-16 -71q0 -72 60 -115t168 -43q171 0 295 121l88 -140q-177 -163 -412 -163q-182 0 -300 82.5t-118 218.5zM438 872q0 57 41.5 97.5t98.5 40.5q49 0 82.5 -34.5t33.5 -82.5q0 -58 -41 -98.5t-98 -40.5q-49 0 -83 34t-34 84z" />
<glyph unicode="&#xc0;" horiz-adv-x="1363" d="M-100 0l843 1366h256l242 -1366h-223l-49 283h-654l-172 -283h-243zM416 465h534l-114 692zM604 1776h182l230 -295h-135z" />
<glyph unicode="&#xc1;" horiz-adv-x="1363" d="M-100 0l843 1366h256l242 -1366h-223l-49 283h-654l-172 -283h-243zM416 465h534l-114 692zM770 1481l360 295h187l-408 -295h-139z" />
<glyph unicode="&#xc2;" horiz-adv-x="1363" d="M-100 0l843 1366h256l242 -1366h-223l-49 283h-654l-172 -283h-243zM416 465h534l-114 692zM614 1481l258 295h172l134 -295h-117l-119 207l-205 -207h-123z" />
<glyph unicode="&#xc3;" horiz-adv-x="1363" d="M-100 0l843 1366h256l242 -1366h-223l-49 283h-654l-172 -283h-243zM416 465h534l-114 692zM573 1489q55 274 236 274q28 0 50.5 -7t42 -25.5t27.5 -28.5t27 -35q16 -25 26.5 -39.5t30 -26.5t42.5 -12q77 0 116 162h109q-30 -132 -86.5 -203t-151.5 -71q-29 0 -52 7.5 t-41.5 24.5t-28 28.5t-25.5 35.5q-19 29 -27.5 40.5t-28.5 24.5t-44 13q-79 0 -115 -162h-107z" />
<glyph unicode="&#xc4;" horiz-adv-x="1363" d="M-100 0l843 1366h256l242 -1366h-223l-49 283h-654l-172 -283h-243zM416 465h534l-114 692zM598 1571q0 47 37 83t84 36q41 0 68.5 -28t27.5 -69q0 -46 -37 -82t-84 -36q-40 0 -68 28t-28 68zM1024 1571q0 47 37 83t84 36q40 0 67 -28t27 -69q0 -46 -36 -82t-85 -36 q-40 0 -67 28t-27 68z" />
<glyph unicode="&#xc5;" horiz-adv-x="1363" d="M-100 0l843 1366h256l242 -1366h-223l-49 283h-654l-172 -283h-243zM416 465h534l-114 692zM721 1599q0 91 67 158.5t158 67.5q83 0 135 -52.5t52 -134.5q0 -92 -67 -158.5t-159 -66.5q-83 0 -134.5 51.5t-51.5 134.5zM815 1608q0 -44 27.5 -73.5t70.5 -29.5q53 0 90 36 t37 87q0 46 -28 74.5t-72 28.5q-51 0 -88 -36t-37 -87z" />
<glyph unicode="&#xc6;" horiz-adv-x="1951" d="M-104 0l1146 1366h998l-41 -180h-711l-88 -400h696l-41 -180h-696l-94 -426h711l-37 -180h-918l64 283h-514l-236 -283h-239zM510 465h414l149 682z" />
<glyph unicode="&#xc7;" horiz-adv-x="1390" d="M115 578q0 178 64.5 332t171.5 257.5t247 162.5t291 59q208 0 354 -92.5t217 -247.5l-194 -74q-54 115 -156 173t-231 58q-107 0 -206.5 -45.5t-176 -124.5t-122.5 -195.5t-46 -250.5q0 -192 120 -312t320 -120q95 0 187 40.5t165 114.5l156 -110q-106 -117 -243 -172.5 t-277 -55.5h-41l-53 -86q33 23 67 23q53 0 86 -33t33 -90q0 -83 -62 -133.5t-161 -50.5q-72 0 -132 23t-96 59l60 80q33 -34 78.5 -53t91.5 -19q57 0 89 24.5t32 63.5q0 26 -19 41.5t-53 15.5q-43 0 -70 -30l-65 43l80 135q-227 39 -366.5 197t-139.5 393z" />
<glyph unicode="&#xc8;" horiz-adv-x="1173" d="M41 0l301 1366h918l-41 -180h-711l-88 -400h696l-41 -180h-696l-94 -426h710l-37 -180h-917zM537 1776h182l229 -295h-135z" />
<glyph unicode="&#xc9;" horiz-adv-x="1173" d="M41 0l301 1366h918l-41 -180h-711l-88 -400h696l-41 -180h-696l-94 -426h710l-37 -180h-917zM700 1481l361 295h186l-407 -295h-140z" />
<glyph unicode="&#xca;" horiz-adv-x="1173" d="M41 0l301 1366h918l-41 -180h-711l-88 -400h696l-41 -180h-696l-94 -426h710l-37 -180h-917zM543 1481l258 295h172l133 -295h-117l-119 207l-202 -207h-125z" />
<glyph unicode="&#xcb;" horiz-adv-x="1173" d="M41 0l301 1366h918l-41 -180h-711l-88 -400h696l-41 -180h-696l-94 -426h710l-37 -180h-917zM528 1571q0 47 37 83t84 36q41 0 67.5 -27.5t26.5 -69.5q0 -46 -35.5 -82t-84.5 -36q-40 0 -67.5 28t-27.5 68zM952 1571q0 47 37.5 83t83.5 36q41 0 68.5 -28t27.5 -69 q0 -46 -36.5 -82t-83.5 -36q-40 0 -68.5 28t-28.5 68z" />
<glyph unicode="&#xcc;" horiz-adv-x="509" d="M41 0l301 1366h205l-301 -1366h-205zM180 1776h182l230 -295h-135z" />
<glyph unicode="&#xcd;" horiz-adv-x="509" d="M41 0l301 1366h205l-301 -1366h-205zM346 1481l361 295h186l-408 -295h-139z" />
<glyph unicode="&#xce;" horiz-adv-x="509" d="M41 0l301 1366h205l-301 -1366h-205zM188 1481l258 295h172l134 -295h-117l-119 207l-203 -207h-125z" />
<glyph unicode="&#xcf;" horiz-adv-x="509" d="M41 0l301 1366h205l-301 -1366h-205zM172 1571q0 47 37.5 83t83.5 36q41 0 68.5 -28t27.5 -69q0 -46 -37 -82t-84 -36q-40 0 -68 28t-28 68zM598 1571q0 47 37 83t84 36q41 0 68.5 -28t27.5 -69q0 -46 -37 -82t-84 -36q-40 0 -68 28t-28 68z" />
<glyph unicode="&#xd0;" horiz-adv-x="1499" d="M41 600l37 168h188l131 598h477q114 0 218.5 -43.5t184 -119t126.5 -185.5t47 -236q0 -114 -31 -223.5t-100 -211t-168 -178.5t-246 -123t-323 -46h-486l133 600h-188zM340 180h278q185 0 327.5 82t216 215t73.5 293q0 179 -113 297.5t-284 118.5h-275l-92 -418h334 l-37 -168h-336z" />
<glyph unicode="&#xd1;" horiz-adv-x="1462" d="M41 0l301 1366h211l512 -1038l231 1038h205l-301 -1366h-199l-520 1063l-235 -1063h-205zM625 1489q55 274 235 274q37 0 68 -17t43.5 -32t36.5 -47q16 -26 26.5 -39.5t29.5 -26t42 -12.5q78 0 117 162h108q-30 -132 -86 -203t-151 -71q-29 0 -52.5 7.5t-42 24.5t-28 29 t-25.5 35q-19 29 -27.5 40.5t-28.5 24.5t-44 13q-79 0 -115 -162h-106z" />
<glyph unicode="&#xd2;" horiz-adv-x="1566" d="M115 578q0 168 60.5 318.5t163.5 258.5t246.5 171t303.5 63q180 0 324.5 -70.5t230.5 -208.5t86 -322q0 -169 -60.5 -319.5t-163.5 -259t-246.5 -171.5t-303.5 -63q-180 0 -324.5 70.5t-230.5 209t-86 323.5zM328 590q0 -201 124.5 -316.5t315.5 -115.5q110 0 211 47 t175.5 128.5t118.5 196.5t44 244q0 133 -59.5 232.5t-158.5 149.5t-222 50q-111 0 -212 -47t-175 -128.5t-118 -196.5t-44 -244zM713 1776h182l229 -295h-135z" />
<glyph unicode="&#xd3;" horiz-adv-x="1566" d="M115 578q0 168 60.5 318.5t163.5 258.5t246.5 171t303.5 63q180 0 324.5 -70.5t230.5 -208.5t86 -322q0 -169 -60.5 -319.5t-163.5 -259t-246.5 -171.5t-303.5 -63q-180 0 -324.5 70.5t-230.5 209t-86 323.5zM328 590q0 -201 124.5 -316.5t315.5 -115.5q110 0 211 47 t175.5 128.5t118.5 196.5t44 244q0 133 -59.5 232.5t-158.5 149.5t-222 50q-111 0 -212 -47t-175 -128.5t-118 -196.5t-44 -244zM874 1481l361 295h186l-407 -295h-140z" />
<glyph unicode="&#xd4;" horiz-adv-x="1566" d="M115 578q0 168 60.5 318.5t163.5 258.5t246.5 171t303.5 63q180 0 324.5 -70.5t230.5 -208.5t86 -322q0 -169 -60.5 -319.5t-163.5 -259t-246.5 -171.5t-303.5 -63q-180 0 -324.5 70.5t-230.5 209t-86 323.5zM328 590q0 -201 124.5 -316.5t315.5 -115.5q110 0 211 47 t175.5 128.5t118.5 196.5t44 244q0 133 -59.5 232.5t-158.5 149.5t-222 50q-111 0 -212 -47t-175 -128.5t-118 -196.5t-44 -244zM721 1481l258 295h172l133 -295h-117l-118 207l-205 -207h-123z" />
<glyph unicode="&#xd5;" horiz-adv-x="1566" d="M115 578q0 168 60.5 318.5t163.5 258.5t246.5 171t303.5 63q180 0 324.5 -70.5t230.5 -208.5t86 -322q0 -169 -60.5 -319.5t-163.5 -259t-246.5 -171.5t-303.5 -63q-180 0 -324.5 70.5t-230.5 209t-86 323.5zM328 590q0 -201 124.5 -316.5t315.5 -115.5q110 0 211 47 t175.5 128.5t118.5 196.5t44 244q0 133 -59.5 232.5t-158.5 149.5t-222 50q-111 0 -212 -47t-175 -128.5t-118 -196.5t-44 -244zM678 1489q55 274 235 274q29 0 52.5 -7.5t42 -24.5t28 -29t25.5 -35q16 -26 26.5 -39.5t29.5 -26t42 -12.5q78 0 117 162h108 q-58 -274 -237 -274q-29 0 -52.5 7.5t-42 24.5t-28 29t-25.5 35q-16 26 -26.5 39.5t-29.5 26t-42 12.5q-81 0 -117 -162h-106z" />
<glyph unicode="&#xd6;" horiz-adv-x="1566" d="M115 578q0 168 60.5 318.5t163.5 258.5t246.5 171t303.5 63q180 0 324.5 -70.5t230.5 -208.5t86 -322q0 -169 -60.5 -319.5t-163.5 -259t-246.5 -171.5t-303.5 -63q-180 0 -324.5 70.5t-230.5 209t-86 323.5zM328 590q0 -201 124.5 -316.5t315.5 -115.5q110 0 211 47 t175.5 128.5t118.5 196.5t44 244q0 133 -59.5 232.5t-158.5 149.5t-222 50q-111 0 -212 -47t-175 -128.5t-118 -196.5t-44 -244zM702 1571q0 47 37 83t84 36q40 0 67.5 -28t27.5 -69q0 -46 -36 -82t-85 -36q-40 0 -67.5 28t-27.5 68zM1126 1571q0 47 37.5 83t83.5 36 q41 0 68.5 -28t27.5 -69q0 -46 -36.5 -82t-83.5 -36q-40 0 -68.5 28t-28.5 68z" />
<glyph unicode="&#xd7;" horiz-adv-x="1024" d="M94 387l373 305l-229 295l98 80l227 -295l371 303l76 -96l-371 -303l229 -297l-96 -78l-231 295l-369 -303z" />
<glyph unicode="&#xd8;" horiz-adv-x="1566" d="M106 0l158 172q-149 159 -149 406q0 168 60.5 318.5t163.5 258.5t246.5 171t303.5 63q228 0 391 -111l82 88h158l-150 -162q160 -163 160 -416q0 -169 -60.5 -319.5t-163.5 -259t-246.5 -171.5t-303.5 -63q-237 0 -406 119l-86 -94h-158zM328 590q0 -154 78 -262l737 800 q-113 78 -266 78q-111 0 -212 -47t-175 -128.5t-118 -196.5t-44 -244zM487 244q119 -86 281 -86q110 0 211 47t175.5 128.5t118.5 196.5t44 244q0 163 -88 275z" />
<glyph unicode="&#xd9;" horiz-adv-x="1454" d="M150 436q0 42 10 99l182 831h207l-180 -827q-11 -39 -11 -80q0 -133 90 -218t250 -85q172 0 267.5 98.5t136.5 284.5l182 827h207l-182 -829q-29 -132 -74.5 -230.5t-116.5 -175.5t-176.5 -116.5t-243.5 -39.5q-260 0 -404 124.5t-144 336.5zM651 1776h183l229 -295h-135 z" />
<glyph unicode="&#xda;" horiz-adv-x="1454" d="M150 436q0 42 10 99l182 831h207l-180 -827q-11 -39 -11 -80q0 -133 90 -218t250 -85q172 0 267.5 98.5t136.5 284.5l182 827h207l-182 -829q-29 -132 -74.5 -230.5t-116.5 -175.5t-176.5 -116.5t-243.5 -39.5q-260 0 -404 124.5t-144 336.5zM819 1481l361 295h186 l-408 -295h-139z" />
<glyph unicode="&#xdb;" horiz-adv-x="1454" d="M150 436q0 42 10 99l182 831h207l-180 -827q-11 -39 -11 -80q0 -133 90 -218t250 -85q172 0 267.5 98.5t136.5 284.5l182 827h207l-182 -829q-29 -132 -74.5 -230.5t-116.5 -175.5t-176.5 -116.5t-243.5 -39.5q-260 0 -404 124.5t-144 336.5zM662 1481l258 295h172 l133 -295h-119l-117 207l-205 -207h-122z" />
<glyph unicode="&#xdc;" horiz-adv-x="1454" d="M150 436q0 42 10 99l182 831h207l-180 -827q-11 -39 -11 -80q0 -133 90 -218t250 -85q172 0 267.5 98.5t136.5 284.5l182 827h207l-182 -829q-29 -132 -74.5 -230.5t-116.5 -175.5t-176.5 -116.5t-243.5 -39.5q-260 0 -404 124.5t-144 336.5zM643 1571q0 47 37.5 83 t83.5 36q41 0 68.5 -28t27.5 -69q0 -46 -37 -82t-84 -36q-40 0 -68 28t-28 68zM1069 1571q0 47 37 83t84 36q41 0 67.5 -27.5t26.5 -69.5q0 -46 -36 -82t-85 -36q-40 0 -67 28t-27 68z" />
<glyph unicode="&#xdd;" horiz-adv-x="1294" d="M201 1366h223l266 -610l533 610h250l-709 -795l-125 -571h-205l125 571zM737 1481l361 295h186l-407 -295h-140z" />
<glyph unicode="&#xde;" horiz-adv-x="1222" d="M41 0l301 1366h205l-51 -238h350q155 0 259.5 -105.5t104.5 -254.5q0 -68 -18 -133.5t-59.5 -128t-101.5 -110t-151 -76.5t-202 -29h-369l-63 -291h-205zM350 471h340q146 0 226.5 82t80.5 197q0 84 -61 140t-150 56h-331z" />
<glyph unicode="&#xdf;" horiz-adv-x="1249" d="M37 0l221 1008q38 167 151.5 272.5t290.5 105.5q95 0 180.5 -31t142 -91.5t56.5 -137.5q0 -43 -14.5 -80t-33.5 -62t-53 -49.5t-58.5 -37.5t-65.5 -33q-37 -18 -51.5 -26t-41.5 -25t-38 -30t-21 -33t-10 -43q0 -17 6 -31t22 -27t28 -21.5t41 -20.5t42 -17t50 -19 q39 -14 59.5 -21.5t57 -23t56.5 -28.5t46.5 -34.5t40 -43.5t23.5 -52t10 -65q0 -132 -107.5 -230t-286.5 -98q-141 0 -240.5 43.5t-183.5 139.5l113 118q120 -151 317 -151q94 0 148.5 47t54.5 111q0 21 -11.5 39t-26 30.5t-44.5 27t-50.5 22l-61.5 22.5q-36 13 -45.5 16.5 t-42.5 16.5t-45 19.5t-39 21.5t-38 26l-29.5 29.5t-25.5 36.5t-13.5 41t-6.5 49q0 39 9 72.5t28.5 61t37 46.5t50.5 40t51.5 31.5t54.5 29.5q88 48 112 70q32 30 32 65q0 58 -56.5 92.5t-134.5 34.5q-94 0 -161.5 -57t-90.5 -158l-221 -1008h-184z" />
<glyph unicode="&#xe0;" d="M74 383q0 119 36 231.5t101 202t165 143.5t218 54q108 0 196 -46.5t140 -127.5l31 149h184l-219 -989h-185l31 137q-130 -162 -317 -162q-172 0 -276.5 108t-104.5 300zM268 418q0 -128 71 -203.5t187 -75.5q83 0 158.5 44t122.5 110l92 409q-37 65 -111 106.5t-170 41.5 q-101 0 -182.5 -61.5t-124.5 -160t-43 -210.5zM432 1434h182l230 -295h-135z" />
<glyph unicode="&#xe1;" d="M74 383q0 119 36 231.5t101 202t165 143.5t218 54q108 0 196 -46.5t140 -127.5l31 149h184l-219 -989h-185l31 137q-130 -162 -317 -162q-172 0 -276.5 108t-104.5 300zM268 418q0 -128 71 -203.5t187 -75.5q83 0 158.5 44t122.5 110l92 409q-37 65 -111 106.5t-170 41.5 q-101 0 -182.5 -61.5t-124.5 -160t-43 -210.5zM596 1139l360 295h187l-408 -295h-139z" />
<glyph unicode="&#xe2;" d="M74 383q0 119 36 231.5t101 202t165 143.5t218 54q108 0 196 -46.5t140 -127.5l31 149h184l-219 -989h-185l31 137q-130 -162 -317 -162q-172 0 -276.5 108t-104.5 300zM268 418q0 -128 71 -203.5t187 -75.5q83 0 158.5 44t122.5 110l92 409q-37 65 -111 106.5t-170 41.5 q-101 0 -182.5 -61.5t-124.5 -160t-43 -210.5zM442 1139l258 295h172l134 -295h-119l-117 207l-205 -207h-123z" />
<glyph unicode="&#xe3;" d="M74 383q0 119 36 231.5t101 202t165 143.5t218 54q108 0 196 -46.5t140 -127.5l31 149h184l-219 -989h-185l31 137q-130 -162 -317 -162q-172 0 -276.5 108t-104.5 300zM268 418q0 -128 71 -203.5t187 -75.5q83 0 158.5 44t122.5 110l92 409q-37 65 -111 106.5t-170 41.5 q-101 0 -182.5 -61.5t-124.5 -160t-43 -210.5zM401 1147q55 274 236 274q28 0 50.5 -7t42 -25.5t27.5 -28.5t27 -35q16 -25 26.5 -39.5t30 -26.5t42.5 -12q77 0 116 162h109q-30 -132 -86.5 -203t-151.5 -71q-29 0 -52 7.5t-41.5 24.5t-28 28.5t-25.5 35.5 q-19 29 -27.5 40.5t-28.5 24.5t-44 13q-79 0 -115 -162h-107z" />
<glyph unicode="&#xe4;" d="M74 383q0 119 36 231.5t101 202t165 143.5t218 54q108 0 196 -46.5t140 -127.5l31 149h184l-219 -989h-185l31 137q-130 -162 -317 -162q-172 0 -276.5 108t-104.5 300zM268 418q0 -128 71 -203.5t187 -75.5q83 0 158.5 44t122.5 110l92 409q-37 65 -111 106.5t-170 41.5 q-101 0 -182.5 -61.5t-124.5 -160t-43 -210.5zM424 1229q0 47 37.5 83t83.5 36q41 0 68.5 -28t27.5 -69q0 -46 -37 -82t-84 -36q-40 0 -68 28t-28 68zM850 1229q0 47 37 83t84 36q41 0 67.5 -27.5t26.5 -69.5q0 -46 -36 -82t-85 -36q-40 0 -67 28t-27 68z" />
<glyph unicode="&#xe5;" d="M74 383q0 119 36 231.5t101 202t165 143.5t218 54q108 0 196 -46.5t140 -127.5l31 149h184l-219 -989h-185l31 137q-130 -162 -317 -162q-172 0 -276.5 108t-104.5 300zM268 418q0 -128 71 -203.5t187 -75.5q83 0 158.5 44t122.5 110l92 409q-37 65 -111 106.5t-170 41.5 q-101 0 -182.5 -61.5t-124.5 -160t-43 -210.5zM553 1288q0 91 67 158t158 67q84 0 136.5 -51.5t52.5 -134.5q0 -92 -67.5 -158.5t-158.5 -66.5q-83 0 -135.5 51.5t-52.5 134.5zM647 1298q0 -46 28.5 -74t72.5 -28q51 0 87.5 35.5t36.5 87.5q0 45 -27.5 73.5t-72.5 28.5 q-50 0 -87.5 -37t-37.5 -86z" />
<glyph unicode="&#xe6;" horiz-adv-x="1906" d="M74 383q0 119 36 231.5t101 202t165 143.5t218 54q108 0 196 -46.5t140 -127.5l31 149h184l-33 -155q61 76 150.5 128t193.5 52q180 0 277.5 -113t97.5 -311q0 -87 -19 -156h-780q-2 -8 -2 -41q0 -108 83.5 -185t234.5 -77q153 0 266 90l61 -133q-70 -52 -156 -82.5 t-165 -30.5q-152 0 -247.5 66t-131.5 176l-49 -217h-185l31 137q-130 -162 -317 -162q-172 0 -276.5 108t-104.5 300zM268 418q0 -128 71 -203.5t187 -75.5q83 0 158.5 44t122.5 110l92 409q-37 65 -111 106.5t-170 41.5q-101 0 -182.5 -61.5t-124.5 -160t-43 -210.5z M1051 567h608q2 6 2 33q0 115 -70 188.5t-202 73.5q-123 0 -219.5 -87.5t-118.5 -207.5z" />
<glyph unicode="&#xe7;" horiz-adv-x="1015" d="M76 420q0 161 74 297.5t203 216.5t284 80q267 0 379 -189l-139 -104q-35 62 -98.5 95.5t-139.5 33.5q-166 0 -270.5 -125.5t-104.5 -300.5q0 -135 82 -210t211 -75q70 0 131.5 30.5t106.5 82.5l102 -125q-145 -152 -358 -152h-21l-55 -86q33 23 67 23q54 0 87.5 -33 t33.5 -90q0 -83 -63 -133.5t-162 -50.5q-70 0 -130.5 23t-96.5 59l59 80q72 -72 172 -72q56 0 87.5 24.5t31.5 63.5q0 26 -19 41.5t-53 15.5q-39 0 -69 -30l-66 43l80 133q-159 33 -252.5 147.5t-93.5 286.5z" />
<glyph unicode="&#xe8;" horiz-adv-x="1146" d="M76 416q0 161 73 298.5t202 218.5t284 81q195 0 313.5 -120.5t118.5 -315.5q0 -79 -18 -144h-785q-4 -16 -4 -41q0 -108 84.5 -187t235.5 -79q72 0 146 23.5t128 66.5l59 -129q-68 -52 -160.5 -82.5t-185.5 -30.5q-228 0 -359.5 119.5t-131.5 321.5zM283 567h616 q2 6 2 33q0 114 -73.5 188t-206.5 74q-124 0 -220 -87t-118 -208zM432 1434h182l230 -295h-135z" />
<glyph unicode="&#xe9;" horiz-adv-x="1146" d="M76 416q0 161 73 298.5t202 218.5t284 81q195 0 313.5 -120.5t118.5 -315.5q0 -79 -18 -144h-785q-4 -16 -4 -41q0 -108 84.5 -187t235.5 -79q72 0 146 23.5t128 66.5l59 -129q-68 -52 -160.5 -82.5t-185.5 -30.5q-228 0 -359.5 119.5t-131.5 321.5zM283 567h616 q2 6 2 33q0 114 -73.5 188t-206.5 74q-124 0 -220 -87t-118 -208zM600 1139l361 295h186l-408 -295h-139z" />
<glyph unicode="&#xea;" horiz-adv-x="1146" d="M76 416q0 161 73 298.5t202 218.5t284 81q195 0 313.5 -120.5t118.5 -315.5q0 -79 -18 -144h-785q-4 -16 -4 -41q0 -108 84.5 -187t235.5 -79q72 0 146 23.5t128 66.5l59 -129q-68 -52 -160.5 -82.5t-185.5 -30.5q-228 0 -359.5 119.5t-131.5 321.5zM283 567h616 q2 6 2 33q0 114 -73.5 188t-206.5 74q-124 0 -220 -87t-118 -208zM440 1139l258 295h172l134 -295h-119l-117 207l-205 -207h-123z" />
<glyph unicode="&#xeb;" horiz-adv-x="1146" d="M76 416q0 161 73 298.5t202 218.5t284 81q195 0 313.5 -120.5t118.5 -315.5q0 -79 -18 -144h-785q-4 -16 -4 -41q0 -108 84.5 -187t235.5 -79q72 0 146 23.5t128 66.5l59 -129q-68 -52 -160.5 -82.5t-185.5 -30.5q-228 0 -359.5 119.5t-131.5 321.5zM283 567h616 q2 6 2 33q0 114 -73.5 188t-206.5 74q-124 0 -220 -87t-118 -208zM426 1229q0 47 37.5 83t83.5 36q41 0 68.5 -28t27.5 -69q0 -46 -37 -82t-84 -36q-40 0 -68 28t-28 68zM852 1229q0 47 37 83t84 36q41 0 68.5 -28t27.5 -69q0 -46 -37 -82t-84 -36q-40 0 -68 28t-28 68z" />
<glyph unicode="&#xec;" horiz-adv-x="477" d="M37 0l219 989h184l-219 -989h-184zM88 1434h182l230 -295h-135z" />
<glyph unicode="&#xed;" horiz-adv-x="477" d="M37 0l219 989h184l-219 -989h-184zM256 1139l360 295h187l-408 -295h-139z" />
<glyph unicode="&#xee;" horiz-adv-x="477" d="M37 0l219 989h184l-219 -989h-184zM98 1139l258 295h172l134 -295h-117l-119 207l-203 -207h-125z" />
<glyph unicode="&#xef;" horiz-adv-x="477" d="M37 0l219 989h184l-219 -989h-184zM82 1229q0 47 37.5 83t83.5 36q41 0 68.5 -28t27.5 -69q0 -46 -37 -82t-84 -36q-40 0 -68 28t-28 68zM508 1229q0 47 37 83t84 36q41 0 68.5 -28t27.5 -69q0 -46 -37 -82t-84 -36q-40 0 -68 28t-28 68z" />
<glyph unicode="&#xf0;" horiz-adv-x="1171" d="M72 399q0 156 68 287t185 207t255 76q111 0 202 -54.5t138 -164.5q-53 182 -246 378l-324 -96l-26 92l270 80q-41 37 -127 103l131 137q121 -93 203 -178l229 67l27 -92l-185 -55q230 -272 230 -565q0 -131 -40.5 -249t-112.5 -206t-177.5 -139.5t-228.5 -51.5 q-211 0 -341 118.5t-130 305.5zM264 414q0 -124 75 -199.5t206 -75.5q147 0 247.5 116.5t100.5 283.5q0 50 -17 96.5t-50.5 85.5t-89.5 62.5t-128 23.5q-143 0 -243.5 -114.5t-100.5 -278.5z" />
<glyph unicode="&#xf1;" horiz-adv-x="1144" d="M37 0l219 989h184l-32 -139q172 164 344 164q137 0 218 -65.5t81 -182.5q0 -27 -11 -82l-151 -684h-184l139 635q10 45 10 65q0 75 -50.5 112.5t-127.5 37.5q-158 0 -301 -143l-154 -707h-184zM389 1147q55 274 236 274q29 0 52 -7.5t41.5 -24.5t28 -28.5t25.5 -35.5 q16 -26 26.5 -39.5t29.5 -26t42 -12.5q78 0 117 162h109q-58 -274 -238 -274q-29 0 -52 7.5t-41.5 24.5t-28 28.5t-25.5 35.5q-16 25 -26.5 39.5t-30 26.5t-42.5 12q-80 0 -116 -162h-107z" />
<glyph unicode="&#xf2;" horiz-adv-x="1171" d="M74 418q0 115 42 223.5t114.5 190.5t177.5 132t223 50q215 0 340 -122.5t125 -320.5q0 -116 -42.5 -224.5t-115 -190.5t-178 -131.5t-223.5 -49.5q-215 0 -339 122t-124 321zM266 426q0 -133 73.5 -210t203.5 -77q102 0 186 61t129 157.5t45 205.5q0 133 -73.5 210 t-202.5 77q-102 0 -186 -61.5t-129.5 -158t-45.5 -204.5zM438 1434h183l229 -295h-135z" />
<glyph unicode="&#xf3;" horiz-adv-x="1171" d="M74 418q0 115 42 223.5t114.5 190.5t177.5 132t223 50q215 0 340 -122.5t125 -320.5q0 -116 -42.5 -224.5t-115 -190.5t-178 -131.5t-223.5 -49.5q-215 0 -339 122t-124 321zM266 426q0 -133 73.5 -210t203.5 -77q102 0 186 61t129 157.5t45 205.5q0 133 -73.5 210 t-202.5 77q-102 0 -186 -61.5t-129.5 -158t-45.5 -204.5zM600 1139l361 295h186l-408 -295h-139z" />
<glyph unicode="&#xf4;" horiz-adv-x="1171" d="M74 418q0 115 42 223.5t114.5 190.5t177.5 132t223 50q215 0 340 -122.5t125 -320.5q0 -116 -42.5 -224.5t-115 -190.5t-178 -131.5t-223.5 -49.5q-215 0 -339 122t-124 321zM266 426q0 -133 73.5 -210t203.5 -77q102 0 186 61t129 157.5t45 205.5q0 133 -73.5 210 t-202.5 77q-102 0 -186 -61.5t-129.5 -158t-45.5 -204.5zM444 1139l258 295h172l134 -295h-117l-119 207l-203 -207h-125z" />
<glyph unicode="&#xf5;" horiz-adv-x="1171" d="M74 418q0 115 42 223.5t114.5 190.5t177.5 132t223 50q215 0 340 -122.5t125 -320.5q0 -116 -42.5 -224.5t-115 -190.5t-178 -131.5t-223.5 -49.5q-215 0 -339 122t-124 321zM266 426q0 -133 73.5 -210t203.5 -77q102 0 186 61t129 157.5t45 205.5q0 133 -73.5 210 t-202.5 77q-102 0 -186 -61.5t-129.5 -158t-45.5 -204.5zM408 1147q55 274 235 274q37 0 68 -17t43.5 -32t36.5 -47q16 -26 26.5 -39.5t29.5 -26t42 -12.5q78 0 117 162h108q-30 -132 -86 -203t-151 -71q-29 0 -52.5 7.5t-42 24.5t-28 29t-25.5 35q-19 29 -27.5 40.5 t-28.5 24.5t-44 13q-79 0 -115 -162h-106z" />
<glyph unicode="&#xf6;" horiz-adv-x="1171" d="M74 418q0 115 42 223.5t114.5 190.5t177.5 132t223 50q215 0 340 -122.5t125 -320.5q0 -116 -42.5 -224.5t-115 -190.5t-178 -131.5t-223.5 -49.5q-215 0 -339 122t-124 321zM266 426q0 -133 73.5 -210t203.5 -77q102 0 186 61t129 157.5t45 205.5q0 133 -73.5 210 t-202.5 77q-102 0 -186 -61.5t-129.5 -158t-45.5 -204.5zM430 1229q0 47 37 83t84 36q40 0 67 -28t27 -69q0 -46 -36 -82t-85 -36q-40 0 -67 28t-27 68zM854 1229q0 47 37.5 83t83.5 36q41 0 68.5 -28t27.5 -69q0 -46 -37 -82t-84 -36q-40 0 -68 28t-28 68z" />
<glyph unicode="&#xf7;" horiz-adv-x="1046" d="M88 629l27 123h927l-26 -123h-928zM377 295q0 45 32.5 78t77.5 33q39 0 67 -28t28 -67q0 -45 -34 -77.5t-79 -32.5q-38 0 -65 28t-27 66zM545 1063q0 45 33.5 78t78.5 33q38 0 66.5 -28.5t28.5 -66.5q0 -47 -33.5 -78.5t-79.5 -31.5q-39 0 -66.5 27.5t-27.5 66.5z" />
<glyph unicode="&#xf8;" horiz-adv-x="1171" d="M2 0l152 147q-80 113 -80 271q0 115 42 223.5t114.5 190.5t177.5 132t223 50q187 0 313 -99l76 74h133l-145 -139q88 -117 88 -279q0 -116 -42.5 -224.5t-115 -190.5t-178 -131.5t-223.5 -49.5q-200 0 -320 105l-82 -80h-133zM266 426q0 -77 29 -143l518 505 q-71 62 -186 62q-102 0 -186 -61.5t-129.5 -158t-45.5 -204.5zM350 207q71 -68 193 -68q102 0 186 61t129 157.5t45 205.5q0 84 -33 152z" />
<glyph unicode="&#xf9;" horiz-adv-x="1144" d="M92 223q0 42 12 82l152 684h184l-141 -633q-10 -45 -10 -67q0 -76 53 -113t141 -37q73 0 148 42t137 104l156 704h184l-219 -989h-184l30 139q-172 -164 -344 -164q-136 0 -217.5 65.5t-81.5 182.5zM424 1434h182l230 -295h-136z" />
<glyph unicode="&#xfa;" horiz-adv-x="1144" d="M92 223q0 42 12 82l152 684h184l-141 -633q-10 -45 -10 -67q0 -76 53 -113t141 -37q73 0 148 42t137 104l156 704h184l-219 -989h-184l30 139q-172 -164 -344 -164q-136 0 -217.5 65.5t-81.5 182.5zM588 1139l360 295h187l-408 -295h-139z" />
<glyph unicode="&#xfb;" horiz-adv-x="1144" d="M92 223q0 42 12 82l152 684h184l-141 -633q-10 -45 -10 -67q0 -76 53 -113t141 -37q73 0 148 42t137 104l156 704h184l-219 -989h-184l30 139q-172 -164 -344 -164q-136 0 -217.5 65.5t-81.5 182.5zM432 1139l258 295h172l133 -295h-116l-119 207l-205 -207h-123z" />
<glyph unicode="&#xfc;" horiz-adv-x="1144" d="M92 223q0 42 12 82l152 684h184l-141 -633q-10 -45 -10 -67q0 -76 53 -113t141 -37q73 0 148 42t137 104l156 704h184l-219 -989h-184l30 139q-172 -164 -344 -164q-136 0 -217.5 65.5t-81.5 182.5zM418 1229q0 47 37 83t84 36q41 0 68.5 -28t27.5 -69q0 -46 -37 -82 t-84 -36q-40 0 -68 28t-28 68zM844 1229q0 47 37 83t84 36q40 0 67 -28t27 -69q0 -46 -36 -82t-85 -36q-40 0 -67 28t-27 68z" />
<glyph unicode="&#xfd;" horiz-adv-x="1017" d="M-96 -379l63 164q41 -18 99 -18q41 0 73 20.5t66 71.5l88 135l-182 995h190l135 -776l484 776h204l-749 -1177q-71 -113 -148.5 -163t-181.5 -50q-80 0 -141 22zM520 1139l361 295h186l-408 -295h-139z" />
<glyph unicode="&#xfe;" horiz-adv-x="1177" d="M-47 -377l385 1743h184l-114 -514q133 162 319 162q172 0 276.5 -109t104.5 -301q0 -118 -36.5 -230.5t-101.5 -201.5t-165 -143t-217 -54q-108 0 -196 47t-140 128l-115 -527h-184zM283 285q37 -65 110.5 -105.5t169.5 -40.5q101 0 182.5 61.5t124.5 159.5t43 209 q0 128 -71.5 204.5t-186.5 76.5q-84 0 -158.5 -44t-123.5 -112z" />
<glyph unicode="&#xff;" horiz-adv-x="1017" d="M-96 -379l63 164q41 -18 99 -18q41 0 73 20.5t66 71.5l88 135l-182 995h190l135 -776l484 776h204l-749 -1177q-71 -113 -148.5 -163t-181.5 -50q-80 0 -141 22zM348 1229q0 47 37 83t84 36q41 0 68.5 -28t27.5 -69q0 -46 -37 -82t-84 -36q-40 0 -68 28t-28 68zM774 1229 q0 47 37 83t84 36q40 0 67 -28t27 -69q0 -46 -36 -82t-85 -36q-40 0 -67 28t-27 68z" />
<glyph unicode="&#x152;" horiz-adv-x="2250" d="M115 578q0 176 62 328.5t167.5 256.5t246 163.5t294.5 59.5q108 0 197 -27.5t163.5 -94.5t116.5 -170l59 272h916l-39 -180h-711l-88 -400h696l-41 -180h-696l-94 -426h711l-39 -180h-916l41 195q-80 -104 -200 -162t-273 -58q-164 0 -295 76.5t-204.5 214.5t-73.5 312z M328 590q0 -197 118 -314.5t308 -117.5q137 0 260 70.5t198 193.5l99 442q-30 161 -142 250.5t-278 89.5q-116 0 -220 -47.5t-179 -129t-119.5 -196t-44.5 -241.5z" />
<glyph unicode="&#x153;" horiz-adv-x="1951" d="M74 418q0 113 41 221t112 191t176 133.5t224 50.5q84 0 155.5 -26.5t117.5 -68.5t75 -85.5t41 -85.5q27 39 51.5 68.5t67 69t85 65.5t103 44.5t125.5 18.5q187 0 307.5 -116t120.5 -320q0 -61 -18 -144h-779q0 -2 -1 -17t-1 -24q0 -110 84 -188t232 -78q72 0 144.5 24.5 t125.5 65.5l59 -129q-67 -51 -157 -82t-187 -31q-87 0 -163 25.5t-126.5 66t-83 85t-44.5 88.5q-32 -44 -52 -69t-63.5 -68t-83.5 -66.5t-101.5 -42.5t-128.5 -19q-206 0 -332 118.5t-126 324.5zM266 426q0 -132 72.5 -209.5t200.5 -77.5q151 0 253.5 125.5t102.5 298.5 q0 142 -78 214.5t-194 72.5q-149 0 -253 -125.5t-104 -298.5zM1100 567h606q4 16 4 33q0 113 -71.5 187.5t-202.5 74.5q-66 0 -127 -27.5t-103.5 -71t-70.5 -95t-35 -101.5z" />
<glyph unicode="&#x178;" horiz-adv-x="1294" d="M201 1366h223l266 -610l533 610h250l-709 -795l-125 -571h-205l125 571zM567 1571q0 47 37 83t84 36q41 0 67.5 -27.5t26.5 -69.5q0 -46 -35.5 -82t-84.5 -36q-40 0 -67.5 28t-27.5 68zM991 1571q0 47 37.5 83t83.5 36q41 0 68.5 -28t27.5 -69q0 -46 -37 -82t-84 -36 q-40 0 -68 28t-28 68z" />
<glyph unicode="&#x2c6;" horiz-adv-x="563" d="M141 1139l258 295h172l134 -295h-117l-119 207l-205 -207h-123z" />
<glyph unicode="&#x2dc;" horiz-adv-x="649" d="M143 1147q55 274 236 274q29 0 52 -7.5t41.5 -24.5t28 -28.5t25.5 -35.5q16 -25 26.5 -39.5t30 -26.5t42.5 -12q77 0 116 162h109q-58 -274 -238 -274q-29 0 -52 7.5t-41.5 24.5t-28 28.5t-25.5 35.5q-16 26 -26.5 39.5t-29.5 26t-42 12.5q-81 0 -117 -162h-107z" />
<glyph unicode="&#x2000;" horiz-adv-x="912" />
<glyph unicode="&#x2001;" horiz-adv-x="1825" />
<glyph unicode="&#x2002;" horiz-adv-x="912" />
<glyph unicode="&#x2003;" horiz-adv-x="1825" />
<glyph unicode="&#x2004;" horiz-adv-x="608" />
<glyph unicode="&#x2005;" horiz-adv-x="456" />
<glyph unicode="&#x2006;" horiz-adv-x="304" />
<glyph unicode="&#x2007;" horiz-adv-x="304" />
<glyph unicode="&#x2008;" horiz-adv-x="228" />
<glyph unicode="&#x2009;" horiz-adv-x="365" />
<glyph unicode="&#x200a;" horiz-adv-x="101" />
<glyph unicode="&#x2010;" horiz-adv-x="614" d="M41 416l37 159h491l-37 -159h-491z" />
<glyph unicode="&#x2011;" horiz-adv-x="614" d="M41 416l37 159h491l-37 -159h-491z" />
<glyph unicode="&#x2012;" horiz-adv-x="614" d="M41 416l37 159h491l-37 -159h-491z" />
<glyph unicode="&#x2013;" horiz-adv-x="1214" d="M41 416l37 159h1091l-36 -159h-1092z" />
<glyph unicode="&#x2014;" horiz-adv-x="1705" d="M41 416l37 159h1583l-37 -159h-1583z" />
<glyph unicode="&#x2018;" horiz-adv-x="485" d="M211 1032q0 100 74.5 200t181.5 154l72 -75q-58 -28 -110 -75.5t-71 -96.5q4 2 17 2q41 0 70.5 -29.5t29.5 -75.5q0 -56 -43 -96.5t-98 -40.5q-52 0 -87.5 35t-35.5 98z" />
<glyph unicode="&#x2019;" horiz-adv-x="485" d="M217 973q60 29 111 76t69 96h-16q-41 0 -69.5 28t-28.5 76q0 56 42 96.5t97 40.5q52 0 87.5 -35.5t35.5 -97.5q0 -99 -74.5 -199.5t-181.5 -154.5z" />
<glyph unicode="&#x201a;" horiz-adv-x="487" d="M-37 -178q58 27 109 75t71 97h-18q-40 0 -69 28t-29 74q0 56 42 96.5t97 40.5q54 0 88.5 -34.5t34.5 -98.5q0 -99 -73.5 -199.5t-180.5 -154.5z" />
<glyph unicode="&#x201c;" horiz-adv-x="837" d="M223 1032q0 100 74.5 200t181.5 154l72 -75q-59 -27 -110.5 -75t-69.5 -97q2 2 16 2q41 0 69.5 -29.5t28.5 -75.5q0 -56 -42 -96.5t-97 -40.5q-52 0 -87.5 35t-35.5 98zM575 1032q0 100 73.5 200t180.5 154l72 -75q-58 -27 -109 -75t-71 -97q4 2 18 2q41 0 70 -29.5 t29 -75.5q0 -56 -42.5 -96.5t-97.5 -40.5q-52 0 -87.5 35t-35.5 98z" />
<glyph unicode="&#x201d;" horiz-adv-x="837" d="M217 973q60 29 111 76t69 96h-16q-41 0 -69.5 28t-28.5 76q0 56 42 96.5t97 40.5q52 0 87.5 -35.5t35.5 -97.5q0 -99 -74.5 -199.5t-181.5 -154.5zM571 973q59 30 110.5 76.5t70.5 95.5h-19q-41 0 -69.5 28t-28.5 76q0 56 42 96.5t97 40.5q52 0 87.5 -35.5t35.5 -97.5 q0 -99 -73.5 -199.5t-180.5 -154.5z" />
<glyph unicode="&#x201e;" horiz-adv-x="837" d="M-37 -178q58 27 109 75t71 97h-18q-40 0 -69 28t-29 74q0 56 42 96.5t97 40.5q54 0 88.5 -34.5t34.5 -98.5q0 -99 -73.5 -199.5t-180.5 -154.5zM315 -178q58 28 110 75.5t71 96.5h-19q-41 0 -69.5 28t-28.5 74q0 56 42 96.5t97 40.5q52 0 87.5 -35t35.5 -98 q0 -99 -74.5 -199.5t-181.5 -154.5z" />
<glyph unicode="&#x2022;" horiz-adv-x="733" d="M137 473q0 101 76 175.5t178 74.5q88 0 146.5 -58.5t58.5 -146.5q0 -101 -77 -174.5t-179 -73.5q-86 0 -144.5 58.5t-58.5 144.5z" />
<glyph unicode="&#x2026;" horiz-adv-x="1460" d="M27 96q0 57 41 97t100 40q48 0 81.5 -34t33.5 -84q0 -56 -41.5 -97t-98.5 -41q-49 0 -82.5 34.5t-33.5 84.5zM514 96q0 57 41 97t100 40q48 0 81.5 -34t33.5 -84q0 -56 -41 -97t-98 -41q-49 0 -83 34.5t-34 84.5zM999 96q0 57 42.5 97t99.5 40q50 0 83 -33.5t33 -84.5 q0 -55 -41.5 -96.5t-97.5 -41.5q-51 0 -85 34.5t-34 84.5z" />
<glyph unicode="&#x202f;" horiz-adv-x="365" />
<glyph unicode="&#x2039;" horiz-adv-x="628" d="M59 498l410 362h186l-417 -373l237 -358h-170z" />
<glyph unicode="&#x203a;" horiz-adv-x="628" d="M-23 129l418 373l-237 358h170l245 -368l-409 -363h-187z" />
<glyph unicode="&#x205f;" horiz-adv-x="456" />
<glyph unicode="&#x20ac;" horiz-adv-x="1431" d="M51 477l29 123h86q0 80 20 168h-69l26 123h78q88 229 285.5 363.5t433.5 134.5q208 0 354 -92.5t217 -247.5l-194 -74q-54 115 -156 173t-231 58q-149 0 -279.5 -84.5t-201.5 -230.5h610l-29 -123h-629q-19 -81 -22 -168h614l-26 -123h-574q33 -147 145.5 -233t280.5 -86 q95 0 187 40.5t165 114.5l156 -110q-106 -117 -243 -172.5t-277 -55.5q-251 0 -426.5 137t-208.5 365h-121z" />
<glyph unicode="&#x2122;" horiz-adv-x="929" d="M215 1313l10 53h312l-11 -53h-127l-88 -398h-57l88 398h-127zM512 915l98 451h88l60 -328l203 328h88l-99 -451h-57l82 373l-236 -373h-16l-72 373l-82 -373h-57z" />
<glyph unicode="&#x25fc;" horiz-adv-x="993" d="M0 0v993h993v-993h-993z" />
</font>
</defs>
</svg>
